<svg width="24" height="24" viewBox="0 0 24 24" fill="none" xmlns="http://www.w3.org/2000/svg">
<path d="M10 18.5C10 18.8978 9.84196 19.2794 9.56066 19.5607C9.27935 19.842 8.89782 20 8.5 20C8.10217 20 7.72064 19.842 7.43934 19.5607C7.15803 19.2794 7 18.8978 7 18.5C7 18.1022 7.15803 17.7206 7.43934 17.4393C7.72064 17.158 8.10217 17 8.5 17C8.89782 17 9.27935 17.158 9.56066 17.4393C9.84196 17.7206 10 18.1022 10 18.5ZM17 18.5C17 18.8978 16.842 19.2794 16.5607 19.5607C16.2794 19.842 15.8978 20 15.5 20C15.1022 20 14.7206 19.842 14.4393 19.5607C14.158 19.2794 14 18.8978 14 18.5C14 18.1022 14.158 17.7206 14.4393 17.4393C14.7206 17.158 15.1022 17 15.5 17C15.8978 17 16.2794 17.158 16.5607 17.4393C16.842 17.7206 17 18.1022 17 18.5Z" fill="#39A0ED"/>
<path d="M5 6C4.73478 6 4.48043 6.10536 4.29289 6.29289C4.10536 6.48043 4 6.73478 4 7V17C4 17.2652 4.10536 17.5196 4.29289 17.7071C4.48043 17.8946 4.73478 18 5 18H6.05C6.16476 17.4349 6.47136 16.9268 6.91787 16.5618C7.36438 16.1969 7.92332 15.9975 8.5 15.9975C9.07668 15.9975 9.63562 16.1969 10.0821 16.5618C10.5286 16.9268 10.8352 17.4349 10.95 18H12C12.2652 18 12.5196 17.8946 12.7071 17.7071C12.8946 17.5196 13 17.2652 13 17V7C13 6.73478 12.8946 6.48043 12.7071 6.29289C12.5196 6.10536 12.2652 6 12 6H5ZM16 9C15.7348 9 15.4804 9.10536 15.2929 9.29289C15.1054 9.48043 15 9.73478 15 10V16.05C15.3217 15.9843 15.6533 15.9826 15.9757 16.045C16.2981 16.1074 16.605 16.2328 16.879 16.4139C17.1529 16.5949 17.3885 16.8282 17.5723 17.1004C17.756 17.3725 17.8844 17.6782 17.95 18H19C19.2652 18 19.5196 17.8946 19.7071 17.7071C19.8946 17.5196 20 17.2652 20 17V12C19.9999 11.7348 19.8945 11.4805 19.707 11.293L17.707 9.293C17.5195 9.10545 17.2652 9.00006 17 9H16Z" fill="#39A0ED"/>
</svg>
